<svg width="44" height="41" viewBox="0 0 44 41" fill="none" xmlns="http://www.w3.org/2000/svg">
<path id="Vector" d="M35.2022 36.9H39.6V41H22C9.8494 41 0 31.8221 0 20.5C0 9.17785 9.8494 0 22 0C34.1506 0 44 9.17785 44 20.5C44.0028 23.6828 43.2091 26.8223 41.6819 29.6692C40.1546 32.5161 37.936 34.9919 35.2022 36.9ZM22 16.4C23.1669 16.4 24.2861 15.968 25.1113 15.1991C25.9364 14.4302 26.4 13.3874 26.4 12.3C26.4 11.2126 25.9364 10.1698 25.1113 9.40086C24.2861 8.63196 23.1669 8.2 22 8.2C20.833 8.2 19.7139 8.63196 18.8887 9.40086C18.0636 10.1698 17.6 11.2126 17.6 12.3C17.6 13.3874 18.0636 14.4302 18.8887 15.1991C19.7139 15.968 20.833 16.4 22 16.4ZM13.2 24.6C14.367 24.6 15.4861 24.168 16.3113 23.3991C17.1364 22.6302 17.6 21.5874 17.6 20.5C17.6 19.4126 17.1364 18.3698 16.3113 17.6009C15.4861 16.832 14.367 16.4 13.2 16.4C12.033 16.4 10.9139 16.832 10.0887 17.6009C9.26357 18.3698 8.8 19.4126 8.8 20.5C8.8 21.5874 9.26357 22.6302 10.0887 23.3991C10.9139 24.168 12.033 24.6 13.2 24.6ZM30.8 24.6C31.9669 24.6 33.0861 24.168 33.9113 23.3991C34.7364 22.6302 35.2 21.5874 35.2 20.5C35.2 19.4126 34.7364 18.3698 33.9113 17.6009C33.0861 16.832 31.9669 16.4 30.8 16.4C29.633 16.4 28.5139 16.832 27.6887 17.6009C26.8636 18.3698 26.4 19.4126 26.4 20.5C26.4 21.5874 26.8636 22.6302 27.6887 23.3991C28.5139 24.168 29.633 24.6 30.8 24.6ZM22 32.8C23.1669 32.8 24.2861 32.368 25.1113 31.5991C25.9364 30.8302 26.4 29.7874 26.4 28.7C26.4 27.6126 25.9364 26.5698 25.1113 25.8009C24.2861 25.032 23.1669 24.6 22 24.6C20.833 24.6 19.7139 25.032 18.8887 25.8009C18.0636 26.5698 17.6 27.6126 17.6 28.7C17.6 29.7874 18.0636 30.8302 18.8887 31.5991C19.7139 32.368 20.833 32.8 22 32.8Z" fill="#C1301D"/>
</svg>
